<svg width="14" height="15" viewBox="0 0 14 15" fill="none" xmlns="http://www.w3.org/2000/svg">
<path d="M12.9062 1.35156L13.3984 1.84375C13.7083 2.17188 13.8633 2.53646 13.8633 2.9375C13.8633 3.33854 13.7083 3.70312 13.3984 4.03125L12.5781 4.85156L9.89844 2.17188L10.7188 1.35156C11.0469 1.04167 11.4115 0.886719 11.8125 0.886719C12.2135 0.886719 12.5781 1.04167 12.9062 1.35156ZM4.70312 7.36719L9.29688 2.77344L11.9766 5.45312L7.38281 10.0469C7.21875 10.2109 7.02734 10.3294 6.80859 10.4023L4.375 11.2227C4.11979 11.2956 3.89193 11.2409 3.69141 11.0586C3.50911 10.8581 3.45443 10.6302 3.52734 10.375L4.34766 7.96875C4.42057 7.73177 4.53906 7.53125 4.70312 7.36719ZM2.625 2.5H5.25C5.50521 2.5 5.71484 2.58203 5.87891 2.74609C6.04297 2.91016 6.125 3.11979 6.125 3.375C6.125 3.63021 6.04297 3.83984 5.87891 4.00391C5.71484 4.16797 5.50521 4.25 5.25 4.25H2.625C2.36979 4.25 2.16016 4.33203 1.99609 4.49609C1.83203 4.66016 1.75 4.86979 1.75 5.125V12.125C1.75 12.3802 1.83203 12.5898 1.99609 12.7539C2.16016 12.918 2.36979 13 2.625 13H9.625C9.88021 13 10.0898 12.918 10.2539 12.7539C10.418 12.5898 10.5 12.3802 10.5 12.125V9.5C10.5 9.24479 10.582 9.03516 10.7461 8.87109C10.9102 8.70703 11.1198 8.625 11.375 8.625C11.6302 8.625 11.8398 8.70703 12.0039 8.87109C12.168 9.03516 12.25 9.24479 12.25 9.5V12.125C12.2318 12.8724 11.9766 13.4922 11.4844 13.9844C10.9922 14.4766 10.3724 14.7318 9.625 14.75H2.625C1.8776 14.7318 1.25781 14.4766 0.765625 13.9844C0.273438 13.4922 0.0182292 12.8724 0 12.125V5.125C0.0182292 4.3776 0.273438 3.75781 0.765625 3.26562C1.25781 2.77344 1.8776 2.51823 2.625 2.5Z" fill="#3455C2"/>
</svg>
