<svg width="24" height="25" viewBox="0 0 24 25" fill="none" xmlns="http://www.w3.org/2000/svg">
<g clip-path="url(#clip0_571_54)">
<path d="M12 1C9.62663 1 7.30655 1.70379 5.33316 3.02236C3.35977 4.34094 1.8217 6.21509 0.913451 8.4078C0.00519943 10.6005 -0.232441 13.0133 0.230582 15.3411C0.693605 17.6689 1.83649 19.8071 3.51472 21.4853C5.19295 23.1635 7.33115 24.3064 9.65892 24.7694C11.9867 25.2324 14.3995 24.9948 16.5922 24.0866C18.7849 23.1783 20.6591 21.6402 21.9776 19.6668C23.2962 17.6935 24 15.3734 24 13C23.9974 9.81821 22.7322 6.76751 20.4824 4.51764C18.2325 2.26778 15.1818 1.00265 12 1ZM12.02 20C11.8887 20.0007 11.7585 19.9754 11.6369 19.9258C11.5154 19.8761 11.4048 19.803 11.3114 19.7106C11.123 19.524 11.0163 19.2702 11.015 19.005C11.0137 18.7398 11.1178 18.4849 11.3044 18.2964C11.491 18.108 11.7448 18.0013 12.01 18H12.02C12.2852 18 12.5396 18.1054 12.7271 18.2929C12.9146 18.4804 13.02 18.7348 13.02 19C13.02 19.2652 12.9146 19.5196 12.7271 19.7071C12.5396 19.8946 12.2852 20 12.02 20ZM13.93 13.505C13.6624 13.6339 13.4346 13.8329 13.2709 14.0808C13.1071 14.3286 13.0135 14.6162 13 14.913C13.0015 15.1828 12.898 15.4426 12.7113 15.6374C12.5247 15.8323 12.2696 15.9469 12 15.957C11.871 15.9617 11.7424 15.9405 11.6218 15.8946C11.5012 15.8487 11.391 15.779 11.2978 15.6898C11.2045 15.6006 11.1301 15.4936 11.079 15.3751C11.0279 15.2566 11.001 15.1291 11 15C10.9976 14.3306 11.1795 13.6735 11.526 13.1007C11.8724 12.5279 12.37 12.0616 12.964 11.753C13.3335 11.5495 13.6292 11.2344 13.8088 10.8527C13.9884 10.4711 14.0427 10.0424 13.964 9.628C13.8861 9.2332 13.6922 8.87059 13.4073 8.58649C13.1223 8.30239 12.759 8.10968 12.364 8.033C12.0754 7.97958 11.7786 7.99034 11.4946 8.06452C11.2106 8.13869 10.9464 8.27446 10.7208 8.4622C10.4952 8.64993 10.3136 8.88502 10.1891 9.15079C10.0645 9.41656 9.99995 9.70649 10 10C10 10.2652 9.89465 10.5196 9.70711 10.7071C9.51958 10.8946 9.26522 11 9.00001 11C8.73479 11 8.48044 10.8946 8.2929 10.7071C8.10536 10.5196 8.00001 10.2652 8.00001 10C8.00026 9.29451 8.18709 8.60163 8.54156 7.99165C8.89603 7.38167 9.40552 6.8763 10.0184 6.52679C10.6312 6.17728 11.3256 5.99606 12.031 6.00154C12.7365 6.00701 13.428 6.19897 14.0353 6.55794C14.6427 6.91692 15.1442 7.43013 15.4892 8.04554C15.8342 8.66094 16.0102 9.35663 15.9995 10.062C15.9889 10.7675 15.7918 11.4575 15.4283 12.0622C15.0649 12.6668 14.5479 13.1646 13.93 13.505Z" fill="#477AC9"/>
</g>
<defs>
<clipPath id="clip0_571_54">
<rect width="24" height="24" fill="white" transform="translate(0 1)"/>
</clipPath>
</defs>
</svg>
