<svg width="10" height="15" viewBox="0 0 10 15" fill="none" xmlns="http://www.w3.org/2000/svg">
<path d="M0.202763 5.36321C0.331196 5.48742 0.50493 5.55714 0.686022 5.55714C0.867115 5.55714 1.04085 5.48742 1.16928 5.36321L4.31561 2.29555L4.31561 14.3331C4.31561 14.51 4.38783 14.6796 4.51638 14.8047C4.64493 14.9297 4.81929 15 5.00108 15C5.18288 15 5.35724 14.9297 5.48579 14.8047C5.61434 14.6796 5.68656 14.51 5.68656 14.3331L5.68656 2.31556L8.81918 5.36321C8.94826 5.48968 9.12368 5.56107 9.30687 5.5617C9.49005 5.56232 9.66599 5.49213 9.79598 5.36655C9.92597 5.24097 9.99935 5.0703 10 4.89209C10.0006 4.71387 9.92848 4.5427 9.79941 4.41624L5.43293 0.174864C5.31732 0.0628738 5.16081 -2.49795e-07 4.99766 -2.58217e-07C4.83451 -2.66638e-07 4.678 0.0628738 4.56238 0.174864L0.202763 4.41624C0.138515 4.47824 0.0875194 4.55199 0.0527189 4.63326C0.0179183 4.71453 7.05815e-07 4.80169 7.01271e-07 4.88973C6.96726e-07 4.97776 0.0179183 5.06493 0.0527189 5.14619C0.0875194 5.22746 0.138515 5.30122 0.202763 5.36321Z" fill="#00CD9C"/>
</svg>
