<svg width="18" height="18" viewBox="0 0 18 18" fill="none" xmlns="http://www.w3.org/2000/svg">
<path d="M12.8721 11.5991C13.8614 10.3473 14.4024 8.79995 14.4086 7.20443C14.4086 5.77953 13.986 4.38663 13.1944 3.20186C12.4028 2.0171 11.2777 1.09369 9.96124 0.548407C8.64483 0.00312155 7.19629 -0.13955 5.7988 0.138434C4.40131 0.416419 3.11762 1.10257 2.11009 2.11013C1.10255 3.11769 0.41641 4.40139 0.138431 5.79891C-0.139547 7.19644 0.0031215 8.64501 0.548396 9.96144C1.09367 11.2779 2.01706 12.4031 3.2018 13.1947C4.38654 13.9863 5.77941 14.4089 7.20428 14.4089C8.79978 14.4027 10.3471 13.8616 11.5989 12.8723L16.4739 17.7472C16.6437 17.9112 16.8712 18.002 17.1073 18C17.3434 17.9979 17.5693 17.9032 17.7362 17.7362C17.9032 17.5693 17.9979 17.3434 18 17.1073C18.002 16.8711 17.9112 16.6437 17.7472 16.4738L12.8721 11.5991ZM1.80107 7.20443C1.80107 6.13575 2.11797 5.09108 2.71168 4.2025C3.30539 3.31393 4.14926 2.62138 5.13656 2.21241C6.12387 1.80345 7.21028 1.69644 8.2584 1.90493C9.30652 2.11342 10.2693 2.62804 11.0249 3.3837C11.7806 4.13937 12.2952 5.10215 12.5037 6.15029C12.7122 7.19843 12.6052 8.28486 12.1962 9.27219C11.7872 10.2595 11.0947 11.1034 10.2061 11.6971C9.31759 12.2908 8.27294 12.6077 7.20428 12.6077C5.77175 12.6062 4.39833 12.0364 3.38537 11.0234C2.37242 10.0104 1.80265 8.63699 1.80107 7.20443Z" fill="#CCCCCC"/>
</svg>
