<svg width="14" height="12" viewBox="0 0 14 12" fill="none" xmlns="http://www.w3.org/2000/svg">
<path d="M0.4375 1.6875C0.4375 1.41406 0.525391 1.18945 0.701172 1.01367C0.876953 0.837891 1.10156 0.75 1.375 0.75H12.625C12.8984 0.75 13.123 0.837891 13.2988 1.01367C13.4746 1.18945 13.5625 1.41406 13.5625 1.6875C13.5625 1.96094 13.4746 2.18555 13.2988 2.36133C13.123 2.53711 12.8984 2.625 12.625 2.625H1.375C1.10156 2.625 0.876953 2.53711 0.701172 2.36133C0.525391 2.18555 0.4375 1.96094 0.4375 1.6875ZM0.4375 6.375C0.4375 6.10156 0.525391 5.87695 0.701172 5.70117C0.876953 5.52539 1.10156 5.4375 1.375 5.4375H8.875C9.14844 5.4375 9.37305 5.52539 9.54883 5.70117C9.72461 5.87695 9.8125 6.10156 9.8125 6.375C9.8125 6.64844 9.72461 6.87305 9.54883 7.04883C9.37305 7.22461 9.14844 7.3125 8.875 7.3125H1.375C1.10156 7.3125 0.876953 7.22461 0.701172 7.04883C0.525391 6.87305 0.4375 6.64844 0.4375 6.375ZM6.0625 11.0625C6.0625 11.3359 5.97461 11.5605 5.79883 11.7363C5.62305 11.9121 5.39844 12 5.125 12H1.375C1.10156 12 0.876953 11.9121 0.701172 11.7363C0.525391 11.5605 0.4375 11.3359 0.4375 11.0625C0.4375 10.7891 0.525391 10.5645 0.701172 10.3887C0.876953 10.2129 1.10156 10.125 1.375 10.125H5.125C5.39844 10.125 5.62305 10.2129 5.79883 10.3887C5.97461 10.5645 6.0625 10.7891 6.0625 11.0625Z" fill="#333333"/>
</svg>
