<svg width="16" height="13" viewBox="0 0 16 13" fill="none" xmlns="http://www.w3.org/2000/svg">
<path d="M8 0.625C9.11198 0.643229 10.1055 0.861979 10.9805 1.28125C11.8555 1.70052 12.6211 2.22005 13.2773 2.83984C13.9154 3.44141 14.444 4.0612 14.8633 4.69922C15.2826 5.33724 15.6016 5.91146 15.8203 6.42188C15.9115 6.64062 15.9115 6.85938 15.8203 7.07812C15.6016 7.58854 15.2826 8.16276 14.8633 8.80078C14.444 9.4388 13.9154 10.0586 13.2773 10.6602C12.6211 11.2799 11.8555 11.7995 10.9805 12.2188C10.1055 12.638 9.11198 12.8568 8 12.875C6.88802 12.8568 5.89453 12.638 5.01953 12.2188C4.14453 11.7995 3.37891 11.2799 2.72266 10.6602C2.08464 10.0586 1.55599 9.4388 1.13672 8.80078C0.717448 8.16276 0.407552 7.58854 0.207031 7.07812C0.115885 6.85938 0.115885 6.64062 0.207031 6.42188C0.407552 5.91146 0.717448 5.33724 1.13672 4.69922C1.55599 4.0612 2.08464 3.44141 2.72266 2.83984C3.37891 2.22005 4.14453 1.70052 5.01953 1.28125C5.89453 0.861979 6.88802 0.643229 8 0.625ZM4.0625 6.75C4.0625 7.46094 4.23568 8.11719 4.58203 8.71875C4.92839 9.32031 5.41146 9.80339 6.03125 10.168C6.65104 10.5143 7.30729 10.6875 8 10.6875C8.69271 10.6875 9.34896 10.5143 9.96875 10.168C10.5885 9.80339 11.0716 9.32031 11.418 8.71875C11.7643 8.11719 11.9375 7.46094 11.9375 6.75C11.9375 6.03906 11.7643 5.38281 11.418 4.78125C11.0716 4.17969 10.5885 3.69661 9.96875 3.33203C9.34896 2.98568 8.69271 2.8125 8 2.8125C7.30729 2.8125 6.65104 2.98568 6.03125 3.33203C5.41146 3.69661 4.92839 4.17969 4.58203 4.78125C4.23568 5.38281 4.0625 6.03906 4.0625 6.75ZM8 5C8 4.79948 7.97266 4.61719 7.91797 4.45312C7.88151 4.27083 7.94531 4.16146 8.10938 4.125C8.67448 4.16146 9.1849 4.35286 9.64062 4.69922C10.0781 5.04557 10.3789 5.5013 10.543 6.06641C10.707 6.79557 10.6159 7.46094 10.2695 8.0625C9.92318 8.66406 9.39453 9.07422 8.68359 9.29297C7.95443 9.45703 7.28906 9.36589 6.6875 9.01953C6.08594 8.67318 5.67578 8.14453 5.45703 7.43359C5.40234 7.23307 5.375 7.04167 5.375 6.85938C5.41146 6.69531 5.52083 6.63151 5.70312 6.66797C5.86719 6.72266 6.04948 6.75 6.25 6.75C6.74219 6.73177 7.15234 6.55859 7.48047 6.23047C7.80859 5.90234 7.98177 5.49219 8 5Z" fill="#3455C2"/>
</svg>
