<svg width="24" height="15" viewBox="0 0 24 15" fill="none" xmlns="http://www.w3.org/2000/svg">
<path d="M15.94 0.295798C15.8463 0.388761 15.7719 0.499362 15.7211 0.621222C15.6703 0.743081 15.6442 0.873786 15.6442 1.0058C15.6442 1.13781 15.6703 1.26852 15.7211 1.39038C15.7719 1.51223 15.8463 1.62284 15.94 1.7158L20.54 6.3158H1C0.734784 6.3158 0.48043 6.42115 0.292893 6.60869C0.105357 6.79623 0 7.05058 0 7.3158C0 7.58102 0.105357 7.83537 0.292893 8.0229C0.48043 8.21044 0.734784 8.3158 1 8.3158H20.52L15.94 12.8858C15.7537 13.0732 15.6492 13.3266 15.6492 13.5908C15.6492 13.855 15.7537 14.1084 15.94 14.2958C16.1274 14.482 16.3808 14.5866 16.645 14.5866C16.9092 14.5866 17.1626 14.482 17.35 14.2958L23.71 7.9358C23.7956 7.85367 23.8637 7.75508 23.9102 7.64596C23.9568 7.53683 23.9808 7.41943 23.9808 7.3008C23.9808 7.18217 23.9568 7.06476 23.9102 6.95564C23.8637 6.84652 23.7956 6.74793 23.71 6.6658L17.36 0.295798C17.267 0.20207 17.1564 0.127676 17.0346 0.0769072C16.9127 0.0261385 16.782 0 16.65 0C16.518 0 16.3873 0.0261385 16.2654 0.0769072C16.1436 0.127676 16.033 0.20207 15.94 0.295798Z" fill="white"/>
</svg>
