<svg width="21" height="21" viewBox="0 0 21 21" fill="none" xmlns="http://www.w3.org/2000/svg">
<path d="M19.9625 16.0784L17.3391 12.8584L17.2457 7.1875C17.2487 7.14923 17.2487 7.11077 17.2457 7.0725C16.4191 2.57312 13.8029 0 10.0582 0C6.10504 0 2.92817 2.875 2.15192 7.05812C2.14803 7.10116 2.14803 7.14446 2.15192 7.1875L2.05848 12.9375L0.0962944 16.1575C0.0332109 16.2668 0 16.3907 0 16.5169C0 16.643 0.0332109 16.767 0.0962944 16.8762C0.157173 16.9876 0.246429 17.0808 0.354995 17.1464C0.463561 17.2121 0.587569 17.2478 0.714419 17.25H7.18317C7.18317 18.0125 7.48607 18.7438 8.02524 19.2829C8.5644 19.8221 9.29567 20.125 10.0582 20.125C10.8207 20.125 11.5519 19.8221 12.0911 19.2829C12.6303 18.7438 12.9332 18.0125 12.9332 17.25H19.4019C19.5374 17.2496 19.67 17.211 19.7845 17.1385C19.8989 17.066 19.9905 16.9626 20.0488 16.8403C20.1078 16.7181 20.131 16.5817 20.1157 16.4469C20.1005 16.3121 20.0474 16.1843 19.9625 16.0784ZM10.0582 18.6875C9.67692 18.6875 9.31129 18.536 9.0417 18.2665C8.77212 17.9969 8.62067 17.6312 8.62067 17.25H11.4957C11.4957 17.6312 11.3442 17.9969 11.0746 18.2665C10.8051 18.536 10.4394 18.6875 10.0582 18.6875ZM1.98661 15.8125L3.42411 13.4838C3.48871 13.3749 3.52342 13.2509 3.52473 13.1244L3.58942 7.25938C4.24348 3.77344 6.83817 1.4375 10.0582 1.4375C14.1047 1.4375 15.3985 5.03125 15.8082 7.25938L15.9088 13.1244C15.9097 13.2865 15.9655 13.4435 16.0669 13.57L17.8925 15.8125H1.98661Z" fill="#999999"/>
</svg>
