<svg width="10" height="15" viewBox="0 0 10 15" fill="none" xmlns="http://www.w3.org/2000/svg">
<path d="M0.202763 9.63679C0.331196 9.51258 0.50493 9.44286 0.686022 9.44286C0.867115 9.44286 1.04085 9.51258 1.16928 9.63679L4.31561 12.7044L4.31561 0.666884C4.31561 0.490015 4.38783 0.32039 4.51638 0.195325C4.64493 0.0702603 4.81929 2.67424e-07 5.00108 2.5804e-07C5.18288 2.48655e-07 5.35724 0.0702603 5.48579 0.195325C5.61434 0.32039 5.68656 0.490015 5.68656 0.666884L5.68656 12.6844L8.81918 9.63679C8.94826 9.51032 9.12368 9.43893 9.30687 9.4383C9.49005 9.43768 9.66599 9.50787 9.79598 9.63345C9.92597 9.75903 9.99935 9.9297 10 10.1079C10.0006 10.2861 9.92848 10.4573 9.79941 10.5838L5.43293 14.8251C5.31732 14.9371 5.16081 15 4.99766 15C4.83451 15 4.678 14.9371 4.56238 14.8251L0.202763 10.5838C0.138515 10.5218 0.0875194 10.448 0.0527189 10.3667C0.0179183 10.2855 7.05815e-07 10.1983 7.01271e-07 10.1103C6.96726e-07 10.0222 0.0179183 9.93507 0.0527189 9.85381C0.0875194 9.77254 0.138515 9.69878 0.202763 9.63679Z" fill="#F01C40"/>
</svg>
